<?xml version="1.0" standalone="no"?>
<!DOCTYPE svg PUBLIC "-//W3C//DTD SVG 20010904//EN"
 "http://www.w3.org/TR/2001/REC-SVG-20010904/DTD/svg10.dtd">
<svg version="1.0" xmlns="http://www.w3.org/2000/svg"
 width="292.000000pt" height="298.000000pt" viewBox="0 0 292.000000 298.000000"
 preserveAspectRatio="xMidYMid meet">

<g transform="translate(0.000000,298.000000) scale(0.100000,-0.100000)"
fill="#000000" stroke="none">
<path d="M160 2320 l0 -150 150 0 150 0 0 150 0 150 -150 0 -150 0 0 -150z"/>
<path d="M550 2320 l0 -150 145 0 145 0 0 150 0 150 -145 0 -145 0 0 -150z"/>
<path d="M927 2463 c-4 -3 -7 -71 -7 -150 l0 -143 150 0 150 0 0 150 0 150
-143 0 c-79 0 -147 -3 -150 -7z"/>
<path d="M1300 2320 l0 -150 150 0 150 0 0 150 0 150 -150 0 -150 0 0 -150z"/>
<path d="M1680 2320 l0 -150 145 0 145 0 0 150 0 150 -145 0 -145 0 0 -150z"/>
<path d="M2060 2320 l0 -150 145 0 145 0 0 150 0 150 -145 0 -145 0 0 -150z"/>
<path d="M2440 2320 l0 -150 145 0 145 0 0 150 0 150 -145 0 -145 0 0 -150z"/>
<path d="M550 1945 l0 -145 145 0 145 0 0 145 0 145 -145 0 -145 0 0 -145z"/>
<path d="M920 1945 l0 -145 150 0 150 0 0 145 0 145 -150 0 -150 0 0 -145z"/>
<path d="M1300 1945 l0 -145 150 0 150 0 0 145 0 145 -150 0 -150 0 0 -145z"/>
<path d="M1680 1940 l0 -150 145 0 145 0 0 150 0 150 -145 0 -145 0 0 -150z"/>
<path d="M2060 1940 l0 -150 145 0 145 0 0 150 0 150 -145 0 -145 0 0 -150z"/>
<path d="M920 1565 l0 -145 150 0 150 0 0 145 0 145 -150 0 -150 0 0 -145z"/>
<path d="M1300 1565 l0 -145 150 0 150 0 0 145 0 145 -150 0 -150 0 0 -145z"/>
<path d="M1680 1565 l0 -145 145 0 145 0 0 145 0 145 -145 0 -145 0 0 -145z"/>
<path d="M1110 1200 l0 -150 150 0 150 0 0 150 0 150 -150 0 -150 0 0 -150z"/>
<path d="M1490 1200 l0 -150 150 0 150 0 0 150 0 150 -150 0 -150 0 0 -150z"/>
<path d="M1110 825 l0 -145 150 0 150 0 0 145 0 145 -150 0 -150 0 0 -145z"/>
<path d="M1490 825 l0 -145 150 0 150 0 0 145 0 145 -150 0 -150 0 0 -145z"/>
<path d="M1300 445 l0 -145 150 0 150 0 0 145 0 145 -150 0 -150 0 0 -145z"/>
</g>
</svg>
