<?xml version="1.0" standalone="no"?>
<!DOCTYPE svg PUBLIC "-//W3C//DTD SVG 20010904//EN"
 "http://www.w3.org/TR/2001/REC-SVG-20010904/DTD/svg10.dtd">
<svg version="1.0" xmlns="http://www.w3.org/2000/svg"
 width="1072.000000pt" height="340.000000pt" viewBox="0 0 1072.000000 340.000000"
 preserveAspectRatio="xMidYMid meet">

<g transform="translate(0.000000,340.000000) scale(0.100000,-0.100000)"
fill="#000000" stroke="none">
<path d="M190 2635 l0 -165 170 0 170 0 0 165 0 165 -170 0 -170 0 0 -165z"/>
<path d="M630 2635 l0 -165 170 0 170 0 0 165 0 165 -170 0 -170 0 0 -165z"/>
<path d="M1060 2635 l0 -165 170 0 170 0 0 165 0 165 -170 0 -170 0 0 -165z"/>
<path d="M1497 2793 c-4 -3 -7 -78 -7 -165 l0 -158 170 0 170 0 0 165 0 165
-163 0 c-90 0 -167 -3 -170 -7z"/>
<path d="M1930 2635 l0 -165 165 0 165 0 0 165 0 165 -165 0 -165 0 0 -165z"/>
<path d="M2360 2635 l0 -165 165 0 165 0 0 165 0 165 -165 0 -165 0 0 -165z"/>
<path d="M2790 2635 l0 -165 170 0 170 0 0 165 0 165 -170 0 -170 0 0 -165z"/>
<path d="M9414 2539 c-18 -5 -46 -25 -63 -44 -27 -31 -31 -43 -31 -92 0 -51 3
-58 38 -93 48 -48 95 -59 157 -35 52 19 85 60 92 114 13 95 -96 180 -193 150z"/>
<path d="M3940 1795 l0 -705 115 0 115 0 0 274 0 274 52 61 c28 34 55 58 59
54 3 -5 96 -150 204 -323 109 -173 203 -321 210 -328 8 -9 47 -12 148 -10
l137 3 -274 411 -274 410 259 287 c143 157 259 289 259 292 0 3 -63 5 -139 5
l-139 0 -249 -281 -248 -282 -3 282 -2 281 -115 0 -115 0 0 -705z"/>
<path d="M8240 1795 l0 -705 283 0 c315 0 371 8 466 62 191 110 271 353 173
531 -35 65 -119 140 -181 162 l-49 18 58 36 c109 67 156 157 148 285 -10 156
-109 258 -291 301 -46 11 -130 15 -334 15 l-273 0 0 -705z m569 483 c63 -32
94 -92 87 -166 -7 -73 -32 -112 -91 -142 -45 -22 -65 -25 -192 -28 l-143 -4 0
187 0 188 146 -6 c127 -5 153 -9 193 -29z m9 -548 c189 -82 190 -339 2 -423
-37 -17 -73 -21 -197 -25 l-153 -5 0 243 0 242 148 -4 c126 -4 155 -8 200 -28z"/>
<path d="M635 2367 c-3 -7 -4 -82 -3 -167 l3 -155 168 -3 167 -2 -2 167 -3
168 -163 3 c-127 2 -164 0 -167 -11z"/>
<path d="M1064 2367 c-2 -7 -3 -82 -2 -167 l3 -155 168 -3 167 -2 0 170 0 170
-165 0 c-126 0 -167 -3 -171 -13z"/>
<path d="M1494 2367 c-2 -7 -3 -82 -2 -167 l3 -155 168 -3 167 -2 0 170 0 170
-165 0 c-126 0 -167 -3 -171 -13z"/>
<path d="M1930 2200 l0 -170 165 0 165 0 0 170 0 170 -165 0 -165 0 0 -170z"/>
<path d="M2360 2200 l0 -170 165 0 165 0 0 170 0 170 -165 0 -165 0 0 -170z"/>
<path d="M9850 2240 l0 -120 -80 0 -80 0 0 -85 0 -85 79 0 80 0 3 -352 c3
-335 4 -355 24 -399 12 -25 34 -58 50 -73 68 -63 244 -75 357 -23 l57 26 0 90
c0 102 -7 109 -65 71 -34 -22 -103 -35 -140 -26 -52 13 -56 38 -53 373 l3 308
123 3 122 3 0 84 0 85 -125 0 -125 0 0 120 0 120 -115 0 -115 0 0 -120z"/>
<path d="M5359 2136 c-156 -33 -274 -139 -341 -305 -28 -67 -32 -91 -36 -196
-2 -71 1 -144 7 -177 19 -90 74 -193 138 -257 95 -94 195 -131 358 -131 118 0
215 19 288 55 93 47 97 54 97 166 0 54 -4 100 -9 104 -5 3 -47 -20 -92 -50
-101 -67 -169 -90 -269 -89 -161 2 -265 90 -289 246 l-8 48 360 0 360 0 -7
108 c-10 178 -44 276 -127 366 -95 104 -264 148 -430 112z m228 -198 c46 -30
78 -88 88 -160 l6 -48 -230 0 c-127 0 -231 4 -231 8 0 31 38 108 73 148 57 65
105 85 188 82 52 -3 75 -9 106 -30z"/>
<path d="M7598 2140 c-61 -11 -142 -55 -190 -105 l-38 -39 0 31 c0 17 -3 45
-6 62 l-6 31 -109 0 -109 0 0 -515 0 -515 114 0 115 0 3 328 c4 370 7 384 81
468 49 56 88 74 159 74 73 0 117 -25 148 -86 l25 -48 4 -368 3 -368 110 0 109
0 -3 398 c-3 427 -5 443 -60 526 -64 96 -212 149 -350 126z"/>
<path d="M6040 1813 c0 -170 5 -349 10 -400 18 -170 69 -257 182 -309 56 -25
74 -29 163 -29 87 0 107 3 156 26 31 15 74 43 96 63 l40 36 7 -31 c3 -17 6
-42 6 -55 0 -24 1 -24 110 -24 l110 0 0 515 0 515 -114 0 -115 0 -3 -327 c-3
-314 -4 -330 -26 -385 -43 -106 -140 -168 -242 -154 -59 8 -90 31 -120 92
l-25 49 -3 363 -4 362 -114 0 -114 0 0 -307z"/>
<path d="M9340 1605 l0 -515 120 0 120 0 0 515 0 515 -120 0 -120 0 0 -515z"/>
<path d="M1067 1943 c-4 -3 -7 -80 -7 -170 l0 -163 170 0 170 0 0 170 0 170
-163 0 c-90 0 -167 -3 -170 -7z"/>
<path d="M1494 1937 c-2 -7 -3 -82 -2 -167 l3 -155 168 -3 167 -2 0 170 0 170
-165 0 c-126 0 -167 -3 -171 -13z"/>
<path d="M1930 1775 l0 -165 165 0 165 0 0 165 0 165 -165 0 -165 0 0 -165z"/>
<path d="M1280 1360 l0 -170 170 0 170 0 0 170 0 170 -170 0 -170 0 0 -170z"/>
<path d="M1710 1360 l0 -170 170 0 170 0 0 170 0 170 -170 0 -170 0 0 -170z"/>
<path d="M1280 935 l0 -165 170 0 170 0 0 165 0 165 -170 0 -170 0 0 -165z"/>
<path d="M1710 935 l0 -165 170 0 170 0 0 165 0 165 -170 0 -170 0 0 -165z"/>
<path d="M1492 498 l3 -163 168 -3 167 -2 0 165 0 165 -170 0 -170 0 2 -162z"/>
</g>
</svg>
